<svg width="40" height="40" viewBox="0 0 40 40" fill="none" xmlns="http://www.w3.org/2000/svg">
<path d="M28 0C34.6274 0 40 5.37258 40 12V28C40 34.6274 34.6274 40 28 40H12C5.37258 40 0 34.6274 0 28V12C0 5.37258 5.37258 0 12 0H28Z" fill="url(#paint0_linear_1_699)"/>
<path d="M28 0C34.6274 0 40 5.37258 40 12V28C40 34.6274 34.6274 40 28 40H12C5.37258 40 0 34.6274 0 28V12C0 5.37258 5.37258 0 12 0H28Z" stroke="#E5E7EB"/>
<g clip-path="url(#clip0_1_699)">
<g clip-path="url(#clip1_1_699)">
<path d="M15.5 10.25C14.259 10.25 13.25 11.259 13.25 12.5V26C13.25 27.241 14.259 28.25 15.5 28.25H24.5C25.741 28.25 26.75 27.241 26.75 26V12.5C26.75 11.259 25.741 10.25 24.5 10.25H15.5ZM16.625 12.5H23.375C23.9973 12.5 24.5 13.0027 24.5 13.625V14.75C24.5 15.3723 23.9973 15.875 23.375 15.875H16.625C16.0027 15.875 15.5 15.3723 15.5 14.75V13.625C15.5 13.0027 16.0027 12.5 16.625 12.5ZM17.75 18.125C17.75 18.4234 17.6315 18.7095 17.4205 18.9205C17.2095 19.1315 16.9234 19.25 16.625 19.25C16.3266 19.25 16.0405 19.1315 15.8295 18.9205C15.6185 18.7095 15.5 18.4234 15.5 18.125C15.5 17.8266 15.6185 17.5405 15.8295 17.3295C16.0405 17.1185 16.3266 17 16.625 17C16.9234 17 17.2095 17.1185 17.4205 17.3295C17.6315 17.5405 17.75 17.8266 17.75 18.125ZM16.625 22.625C16.3266 22.625 16.0405 22.5065 15.8295 22.2955C15.6185 22.0845 15.5 21.7984 15.5 21.5C15.5 21.2016 15.6185 20.9155 15.8295 20.7045C16.0405 20.4935 16.3266 20.375 16.625 20.375C16.9234 20.375 17.2095 20.4935 17.4205 20.7045C17.6315 20.9155 17.75 21.2016 17.75 21.5C17.75 21.7984 17.6315 22.0845 17.4205 22.2955C17.2095 22.5065 16.9234 22.625 16.625 22.625ZM15.5 24.875C15.5 24.2527 16.0027 23.75 16.625 23.75H20C20.6223 23.75 21.125 24.2527 21.125 24.875C21.125 25.4973 20.6223 26 20 26H16.625C16.0027 26 15.5 25.4973 15.5 24.875ZM20 19.25C19.7016 19.25 19.4155 19.1315 19.2045 18.9205C18.9935 18.7095 18.875 18.4234 18.875 18.125C18.875 17.8266 18.9935 17.5405 19.2045 17.3295C19.4155 17.1185 19.7016 17 20 17C20.2984 17 20.5845 17.1185 20.7955 17.3295C21.0065 17.5405 21.125 17.8266 21.125 18.125C21.125 18.4234 21.0065 18.7095 20.7955 18.9205C20.5845 19.1315 20.2984 19.25 20 19.25ZM21.125 21.5C21.125 21.7984 21.0065 22.0845 20.7955 22.2955C20.5845 22.5065 20.2984 22.625 20 22.625C19.7016 22.625 19.4155 22.5065 19.2045 22.2955C18.9935 22.0845 18.875 21.7984 18.875 21.5C18.875 21.2016 18.9935 20.9155 19.2045 20.7045C19.4155 20.4935 19.7016 20.375 20 20.375C20.2984 20.375 20.5845 20.4935 20.7955 20.7045C21.0065 20.9155 21.125 21.2016 21.125 21.5ZM23.375 19.25C23.0766 19.25 22.7905 19.1315 22.5795 18.9205C22.3685 18.7095 22.25 18.4234 22.25 18.125C22.25 17.8266 22.3685 17.5405 22.5795 17.3295C22.7905 17.1185 23.0766 17 23.375 17C23.6734 17 23.9595 17.1185 24.1705 17.3295C24.3815 17.5405 24.5 17.8266 24.5 18.125C24.5 18.4234 24.3815 18.7095 24.1705 18.9205C23.9595 19.1315 23.6734 19.25 23.375 19.25ZM24.5 21.5C24.5 21.7984 24.3815 22.0845 24.1705 22.2955C23.9595 22.5065 23.6734 22.625 23.375 22.625C23.0766 22.625 22.7905 22.5065 22.5795 22.2955C22.3685 22.0845 22.25 21.7984 22.25 21.5C22.25 21.2016 22.3685 20.9155 22.5795 20.7045C22.7905 20.4935 23.0766 20.375 23.375 20.375C23.6734 20.375 23.9595 20.4935 24.1705 20.7045C24.3815 20.9155 24.5 21.2016 24.5 21.5ZM23.375 26C23.0766 26 22.7905 25.8815 22.5795 25.6705C22.3685 25.4595 22.25 25.1734 22.25 24.875C22.25 24.5766 22.3685 24.2905 22.5795 24.0795C22.7905 23.8685 23.0766 23.75 23.375 23.75C23.6734 23.75 23.9595 23.8685 24.1705 24.0795C24.3815 24.2905 24.5 24.5766 24.5 24.875C24.5 25.1734 24.3815 25.4595 24.1705 25.6705C23.9595 25.8815 23.6734 26 23.375 26Z" fill="white"/>
</g>
</g>
<defs>
<linearGradient id="paint0_linear_1_699" x1="0" y1="20" x2="40" y2="20" gradientUnits="userSpaceOnUse">
<stop stop-color="#2563EB"/>
<stop offset="1" stop-color="#2563EB"/>
</linearGradient>
<clipPath id="clip0_1_699">
<rect width="13.5" height="18" fill="white" transform="translate(13.25 10.25)"/>
</clipPath>
<clipPath id="clip1_1_699">
<path d="M13.25 10.25H26.75V28.25H13.25V10.25Z" fill="white"/>
</clipPath>
</defs>
</svg>
